<?xml version="1.0" encoding="utf-8"?>
<!-- Generator: Adobe Illustrator 28.0.0, SVG Export Plug-In . SVG Version: 6.00 Build 0)  -->
<svg version="1.1" id="Layer_1" xmlns="http://www.w3.org/2000/svg" xmlns:xlink="http://www.w3.org/1999/xlink" x="0px" y="0px"
	 viewBox="0 0 1716 881" style="enable-background:new 0 0 1716 881;" xml:space="preserve">
<style type="text/css">
	.st0{clip-path:url(#SVGID_00000042717539846987232880000013058954487119582898_);}
	.st1{fill:url(#SVGID_00000062159967638634486300000003925114062612298624_);}
	.st2{fill-opacity:0;}
	.st3{fill:url(#SVGID_00000137102094874457749940000015298069313781581476_);}
</style>
<g>
	<defs>
		<rect id="SVGID_1_" width="1716" height="881"/>
	</defs>
	<clipPath id="SVGID_00000158006484372194029350000009928936708711509690_">
		<use xlink:href="#SVGID_1_"  style="overflow:visible;"/>
	</clipPath>
	<g style="clip-path:url(#SVGID_00000158006484372194029350000009928936708711509690_);">
		<g transform="matrix(2,0,0,2,459,442)">
			<g transform="matrix(1,0,0,1,0,0)">
				
					<linearGradient id="SVGID_00000110461072876033811390000003216126884101936788_" gradientUnits="userSpaceOnUse" x1="-2093.8008" y1="1565.5244" x2="4850.1997" y2="-3474.4756" gradientTransform="matrix(2 0 0 -2 509.5 489.5)">
					<stop  offset="0" style="stop-color:#46005F"/>
					<stop  offset="0.29" style="stop-color:#350945"/>
					<stop  offset="0.47" style="stop-color:#23122B"/>
					<stop  offset="0.81" style="stop-color:#39094B"/>
					<stop  offset="1" style="stop-color:#4F006B"/>
				</linearGradient>
				<path style="fill:url(#SVGID_00000110461072876033811390000003216126884101936788_);" d="M186.8-74
					c-28.1-9.8-59.1,5.3-68.9,33.4l-12,34.4l-30.5-88c-7.8-22.4-29-36.4-51.5-36.4c-22.5-0.1-43.7,14-51.4,36.4l-30.9,89
					l-59.6-171.7c-9.8-28.1-40.8-43.2-68.9-33.4c-28.1,9.8-43.2,40.8-33.4,68.9l110.4,318.2c7.8,22.4,29,36.4,51.5,36.4
					c22.5,0.1,43.7-14,51.5-36.4l30.9-89l30.9,89c9.8,28.1,40.8,43.2,68.9,33.4c16.5-5.7,28.4-18.7,33.6-34.1
					c0.1-0.2,0.1-0.4,0.2-0.5L220.2-5.1C230-33.2,214.9-64.2,186.8-74L186.8-74z"/>
				<path class="st2" d="M186.8-74c-28.1-9.8-59.1,5.3-68.9,33.4l-12,34.4l-30.5-88c-7.8-22.4-29-36.4-51.5-36.4
					c-22.5-0.1-43.7,14-51.4,36.4l-30.9,89l-59.6-171.7c-9.8-28.1-40.8-43.2-68.9-33.4c-28.1,9.8-43.2,40.8-33.4,68.9l110.4,318.2
					c7.8,22.4,29,36.4,51.5,36.4c22.5,0.1,43.7-14,51.5-36.4l30.9-89l30.9,89c9.8,28.1,40.8,43.2,68.9,33.4
					c16.5-5.7,28.4-18.7,33.6-34.1c0.1-0.2,0.1-0.4,0.2-0.5L220.2-5.1C230-33.2,214.9-64.2,186.8-74L186.8-74z"/>
			</g>
		</g>
		<g transform="matrix(2,0,0,2,892,120.5)">
			<g transform="matrix(1,0,0,1,0,0)">
				
					<linearGradient id="SVGID_00000084492120410899633650000003876938766947251893_" gradientUnits="userSpaceOnUse" x1="-516.3269" y1="435.6371" x2="-341.3269" y2="318.6371" gradientTransform="matrix(2 0 0 -2 942.5 811)">
					<stop  offset="0" style="stop-color:#420059"/>
					<stop  offset="0.19" style="stop-color:#3B054E"/>
					<stop  offset="0.38" style="stop-color:#340A43"/>
					<stop  offset="0.75" style="stop-color:#3D0551"/>
					<stop  offset="1" style="stop-color:#47005F"/>
				</linearGradient>
				<path style="fill:url(#SVGID_00000084492120410899633650000003876938766947251893_);" d="M0-53.2c29.4,0,53.2,23.8,53.2,53.2
					S29.4,53.2,0,53.2S-53.2,29.4-53.2,0S-29.4-53.2,0-53.2z"/>
				<path class="st2" d="M0-53.2c29.4,0,53.2,23.8,53.2,53.2S29.4,53.2,0,53.2S-53.2,29.4-53.2,0S-29.4-53.2,0-53.2z"/>
			</g>
		</g>
	</g>
</g>
</svg>
